<svg xmlns="http://www.w3.org/2000/svg" xmlns:xlink="http://www.w3.org/1999/xlink" width="103" height="135" viewBox="0 0 103 135"><defs><path id="a6pcb" d="M540.8 1005.46l3.96 40.16 36.75-16.66s-7.82-26.45-40.7-23.5z"/><path id="a6pcf" d="M542.66 1034.24s5.79.65 13.14 7.59c7.35 6.93-9.54 7.2-9.54 7.2s-8.73-3.9-8.83-4.72c-.1-.83 2.1-9.96 2.1-9.96"/><path id="a6pcd" d="M617.66 918.42a23.5 23.5 0 0 1 8.6 32.1l-5.5 9.53a23.5 23.5 0 0 1-40.7-23.5l5.5-9.53a23.5 23.5 0 0 1 32.1-8.6z"/><path id="a6pch" d="M618.6 917.8l20.78 12-13.5 23.39-20.79-12z"/><path id="a6pcc" d="M585.3 927.46s11.18 4.14 21.35 10.01a160.7 160.7 0 0 1 19.36 13.48l-12.5 21.66-40.7-23.5z"/><path id="a6pcj" d="M608.1 936l21.64 12.5-13 22.5-21.65-12.5z"/><path id="a6pca" d="M574.85 945.33s11.17 4.14 21.35 10.01c10.17 5.88 19.35 13.49 19.35 13.49l-34.04 60.13s-2.96-4.02-8.53-7.23c-6.56-3.8-14.7.74-14.7.74s.09-9.18-7.07-13.32c-5.45-3.14-10.4-3.7-10.4-3.7z"/><path id="a6pcl" d="M602.6 946.44l23.37 13.5-44 76.22-23.38-13.5z"/><clipPath id="a6pck"><use xlink:href="#a6pca"/></clipPath><clipPath id="a6pce"><use xlink:href="#a6pcb"/></clipPath><clipPath id="a6pci"><use xlink:href="#a6pcc"/></clipPath><clipPath id="a6pcg"><use xlink:href="#a6pcd"/></clipPath></defs><g><g transform="translate(-537 -915)"><g><use fill="#ffecba" xlink:href="#a6pcb"/></g><g clip-path="url(#a6pce)"><use fill="#393939" xlink:href="#a6pcf"/></g><g><use fill="#e88f8d" xlink:href="#a6pcd"/></g><g clip-path="url(#a6pcg)"><use fill="#d97475" xlink:href="#a6pch"/></g><g><use fill="#daeaf2" xlink:href="#a6pcc"/></g><g clip-path="url(#a6pci)"><use fill="#bedae8" xlink:href="#a6pcj"/></g><g><use fill="#f1c40f" xlink:href="#a6pca"/></g><g clip-path="url(#a6pck)"><use fill="#f39c12" xlink:href="#a6pcl"/></g></g></g></svg>